<?xml version="1.0" encoding="UTF-8"?>
<svg id="Layer_1" xmlns="http://www.w3.org/2000/svg" version="1.1" viewBox="0 0 2477.53 4000">
  <!-- Generator: Adobe Illustrator 30.2.1, SVG Export Plug-In . SVG Version: 2.1.1 Build 1)  -->
  <defs>
    <style>
      .st0 {
        fill-rule: evenodd;
      }

      .st0, .st1 {
        fill: #fff;
      }
    </style>
  </defs>
  <path class="st0" d="M1238.77,0l544.61,395.7,544.61,395.7-113.83,350.33-975.4-708.67-975.4,708.67-113.83-350.33,544.61-395.7L1238.77,0h0ZM1238.77,153.68L295.69,838.87l33.03,101.7,910.04-661.19,910.04,661.19,33.03-101.7L1238.77,153.68h0Z"/>
  <path class="st0" d="M1238.77,680.62l1089.23,791.37-181.13,557.49-908.1-659.77-908.1,659.77-181.13-557.49,1089.23-791.37h0ZM1238.77,934.56l-847.73,615.9,47.62,146.63,800.11-581.3,800.11,581.3,47.62-146.63-847.73-615.9h0Z"/>
  <path class="st0" d="M1238.77,1668.15l814.67,591.91-311.17,957.72h-1007.01l-311.17-957.72,814.68-591.91h0ZM1238.77,1964.98l-532.37,386.8,203.34,625.85h235.96l93.08-624.03,93.08,624.03h235.96l203.34-625.85-532.37-386.8h-.02Z"/>
  <g>
    <path class="st1" d="M479.92,3524.68l-53.9,465.54h-151.14c-13.84-71.52-26.05-152.9-36.64-244.13-4.83,39.12-16.08,120.49-33.76,244.13H54.19L0,3524.68h117.61l12.79,162.43,12.37,157.03c4.47-81.26,15.62-187.75,33.47-319.47h125.71c1.67,13.61,6.07,64.8,13.2,153.55l13.37,177.13c6.88-112.69,18.15-222.92,33.79-330.68h117.61Z"/>
    <path class="st1" d="M707.3,3524.68l69.23,465.54h-123.72l-6.5-83.68h-43.3l-7.28,83.68h-125.16l61.75-465.54h174.98ZM643.14,3824.02c-6.13-52.73-12.27-117.9-18.44-195.53-12.33,89.15-20.08,154.32-23.23,195.53h41.67Z"/>
    <path class="st1" d="M797.09,3524.68h85.69c57.12,0,95.8,2.21,116.03,6.61,20.22,4.41,36.71,15.67,49.46,33.79s19.12,47.01,19.12,86.7c0,36.23-4.51,60.58-13.51,73.04-9.01,12.46-26.74,19.94-53.2,22.43,23.96,5.94,40.06,13.9,48.31,23.87,8.24,9.97,13.37,19.12,15.38,27.46,2.01,8.34,3.02,31.3,3.02,68.87v122.78h-112.43v-154.7c0-24.92-1.97-40.35-5.89-46.3-3.93-5.94-14.23-8.91-30.91-8.91v209.91h-121.06v-465.54h-.01ZM918.15,3604.33v103.52c13.61,0,23.15-1.87,28.61-5.61,5.46-3.74,8.2-15.86,8.2-36.38v-25.59c0-14.76-2.64-24.44-7.91-29.04-5.27-4.6-14.91-6.9-28.9-6.9Z"/>
    <path class="st1" d="M1370.75,3665.58h-112.43v-34.51c0-16.1-1.44-26.36-4.31-30.77-2.88-4.41-7.67-6.61-14.38-6.61-7.29,0-12.8,2.97-16.53,8.92s-5.61,14.96-5.61,27.05c0,15.54,2.1,27.24,6.3,35.1,4.01,7.87,15.41,17.36,34.21,28.46,53.89,31.99,87.83,58.23,101.82,78.74s20.99,53.58,20.99,99.2c0,33.17-3.88,57.61-11.65,73.33-7.76,15.72-22.76,28.9-45,39.54-22.24,10.64-48.12,15.96-77.64,15.96-32.4,0-60.05-6.14-82.96-18.4-22.91-12.27-37.91-27.89-45-46.87-7.09-18.98-10.64-45.91-10.64-80.8v-30.48h112.43v56.65c0,17.45,1.58,28.66,4.74,33.64,3.16,4.99,8.77,7.48,16.82,7.48s14.04-3.16,17.97-9.49c3.93-6.33,5.89-15.72,5.89-28.18,0-27.41-3.74-45.33-11.21-53.77-7.67-8.43-26.55-22.52-56.65-42.27-30.1-19.94-50.03-34.41-59.81-43.42s-17.88-21.47-24.3-37.38c-6.43-15.91-9.63-36.23-9.63-60.96,0-35.66,4.55-61.72,13.66-78.21,9.1-16.48,23.82-29.37,44.14-38.68,20.32-9.3,44.86-13.95,73.61-13.95,31.44,0,58.23,5.08,80.37,15.24s36.81,22.96,44,38.39,10.78,41.65,10.78,78.64v18.4h.02Z"/>
    <path class="st1" d="M1697.12,3524.68v465.54h-121.06v-195.53h-36.23v195.53h-121.06v-465.54h121.06v166.49h36.23v-166.49h121.06,0Z"/>
    <path class="st1" d="M1866.78,3524.68v465.54h-121.06v-465.54h121.06Z"/>
    <path class="st1" d="M1915.37,3524.68h121.92c32.97,0,58.32,2.59,76.06,7.76,17.73,5.18,31.06,12.65,39.97,22.43s14.95,21.62,18.12,35.51c3.16,13.9,4.74,35.42,4.74,64.55v40.54c0,29.72-3.07,51.38-9.2,64.99-6.14,13.61-17.4,24.06-33.79,31.34-16.39,7.29-37.81,10.93-64.27,10.93h-32.49v187.48h-121.06v-465.54h0ZM2036.43,3604.33v118.47c3.45.19,6.42.29,8.91.29,11.12,0,18.83-2.73,23.15-8.2,4.31-5.46,6.47-16.82,6.47-34.07v-38.24c0-15.91-2.49-26.26-7.48-31.06-4.99-4.79-15.34-7.19-31.06-7.19h.01Z"/>
    <path class="st1" d="M2467.47,3665.58h-112.43v-34.51c0-16.1-1.44-26.36-4.31-30.77-2.88-4.41-7.67-6.61-14.38-6.61-7.29,0-12.8,2.97-16.53,8.92-3.74,5.95-5.61,14.96-5.61,27.05,0,15.54,2.1,27.24,6.3,35.1,4.01,7.87,15.42,17.36,34.21,28.46,53.89,31.99,87.83,58.23,101.82,78.74s20.99,53.58,20.99,99.2c0,33.17-3.88,57.61-11.65,73.33-7.76,15.72-22.77,28.9-45,39.54-22.24,10.64-48.12,15.96-77.64,15.96-32.4,0-60.05-6.14-82.96-18.4-22.91-12.27-37.91-27.89-45-46.87-7.09-18.98-10.64-45.91-10.64-80.8v-30.48h112.43v56.65c0,17.45,1.58,28.66,4.74,33.64,3.16,4.99,8.77,7.48,16.82,7.48s14.04-3.16,17.97-9.49,5.89-15.72,5.89-28.18c0-27.41-3.74-45.33-11.21-53.77-7.67-8.43-26.55-22.52-56.65-42.27-30.1-19.94-50.03-34.41-59.81-43.42s-17.88-21.47-24.3-37.38c-6.43-15.91-9.63-36.23-9.63-60.96,0-35.66,4.55-61.72,13.66-78.21,9.1-16.48,23.82-29.37,44.14-38.68,20.32-9.3,44.86-13.95,73.61-13.95,31.44,0,58.23,5.08,80.37,15.24,22.14,10.16,36.81,22.96,44,38.39s10.78,41.65,10.78,78.64v18.4h.02Z"/>
  </g>
</svg>